<?xml version="1.0" encoding="UTF-8"?>
<svg xmlns="http://www.w3.org/2000/svg" viewBox="0 0 1920 1080">
  <defs>
    <style>
      .cls-1, .cls-2, .cls-3, .cls-4, .cls-5, .cls-6, .cls-7, .cls-8, .cls-9, .cls-10, .cls-11, .cls-12, .cls-13, .cls-14, .cls-15, .cls-16, .cls-17, .cls-18, .cls-19, .cls-20, .cls-21, .cls-22, .cls-23, .cls-24, .cls-25, .cls-26, .cls-27, .cls-28, .cls-29, .cls-30, .cls-31, .cls-32, .cls-33, .cls-34, .cls-35, .cls-36, .cls-37, .cls-38, .cls-39, .cls-40, .cls-41, .cls-42, .cls-43, .cls-44, .cls-45 {
        stroke-miterlimit: 10;
      }

      .cls-1, .cls-2, .cls-3, .cls-22 {
        stroke: #fff;
      }

      .cls-2 {
        font-size: 110.95px;
      }

      .cls-2, .cls-3 {
        font-family: Arial-Black, 'Arial Black';
        font-weight: 800;
      }

      .cls-2, .cls-3, .cls-4, .cls-5, .cls-6, .cls-7, .cls-8, .cls-9, .cls-10, .cls-11, .cls-12, .cls-13, .cls-14, .cls-15, .cls-16, .cls-17, .cls-18, .cls-19, .cls-20, .cls-21, .cls-22, .cls-23, .cls-24, .cls-25, .cls-26, .cls-27, .cls-28, .cls-29, .cls-30, .cls-31, .cls-32, .cls-33, .cls-34, .cls-35, .cls-36, .cls-37, .cls-38, .cls-39, .cls-40, .cls-41, .cls-42, .cls-43, .cls-44, .cls-45 {
        fill: none;
      }

      .cls-3 {
        font-size: 21px;
      }

      .cls-4 {
        stroke: #1fc226;
      }

      .cls-5 {
        stroke: #19c020;
      }

      .cls-6 {
        stroke: #0cbc14;
      }

      .cls-7 {
        stroke: #13be1a;
      }

      .cls-8 {
        stroke: #3eca44;
      }

      .cls-9 {
        stroke: #06bb0e;
      }

      .cls-10 {
        stroke: #00b908;
      }

      .cls-11 {
        stroke: #8fe093;
      }

      .cls-12 {
        stroke: #64d468;
      }

      .cls-13 {
        stroke: #9be49f;
      }

      .cls-14 {
        stroke: #89df8d;
      }

      .cls-15 {
        stroke: #b4ebb7;
      }

      .cls-16 {
        stroke: #83dd87;
      }

      .cls-17 {
        stroke: #c1eec3;
      }

      .cls-18 {
        stroke: #6ad66e;
      }

      .cls-19 {
        stroke: #95e299;
      }

      .cls-20 {
        stroke: #7cdb80;
      }

      .cls-21 {
        stroke: #ecfaed;
      }

      .cls-23 {
        stroke: #e6f8e7;
      }

      .cls-24 {
        stroke: #70d874;
      }

      .cls-25 {
        stroke: #2cc532;
      }

      .cls-26 {
        stroke: #51cf56;
      }

      .cls-27 {
        stroke: #a2e5a5;
      }

      .cls-28 {
        stroke: #44cc4a;
      }

      .cls-29 {
        stroke: #5dd362;
      }

      .cls-30 {
        stroke: #76d97a;
      }

      .cls-31 {
        stroke: #25c32c;
      }

      .cls-32 {
        stroke: #38c83e;
      }

      .cls-33 {
        stroke: #4bcd50;
      }

      .cls-34 {
        stroke: #57d15c;
      }

      .cls-35 {
        stroke: #32c738;
      }

      .cls-36 {
        stroke: #bbecbd;
      }

      .cls-37 {
        stroke: #a8e7ab;
      }

      .cls-38 {
        stroke: #aee9b1;
      }

      .cls-39 {
        stroke: #cdf1cf;
      }

      .cls-40 {
        stroke: #daf5db;
      }

      .cls-41 {
        stroke: #d3f3d5;
      }

      .cls-42 {
        stroke: #e0f6e1;
      }

      .cls-43 {
        stroke: #c7f0c9;
      }

      .cls-44 {
        stroke: #f9fdf9;
      }

      .cls-45 {
        stroke: #f3fcf3;
      }

      .cls-46 {
        letter-spacing: -.02em;
      }

      .cls-47 {
        letter-spacing: 0em;
      }
    </style>
  </defs>
  <g id="Layer_2" data-name="Layer 2">
    <rect class="cls-1" x="-346.5" y="-245.5" width="3173" height="2001"/>
  </g>
  <g id="Layer_3" data-name="Layer 3">
    <text class="cls-3" transform="translate(11.81 1066.94)"><tspan class="cls-46" x="0" y="0">R</tspan><tspan x="15.81" y="0">eda Ra</tspan><tspan class="cls-47" x="95.18" y="0">z</tspan><tspan x="106.65" y="0">ouk</tspan></text>
  </g>
  <g id="Layer_1" data-name="Layer 1">
    <text class="cls-2" transform="translate(858.63 540.19) scale(.65 1)"><tspan x="0" y="0">FEDD</tspan></text>
    <g>
      <path class="cls-22" d="M902.93,429.7c-6.86,1.38-57.8,11.59-69.55,49.95-11.56,37.77,21.29,81.86,47.32,102.28,52.5,41.2,136.93,32.98,181.39-20.62,32.86-39.61,45.36-105.76,25.09-126.07-15.15-15.18-35.86,8.03-94.64,5.55-47.35-2-55.39-17.96-89.62-11.1Z"/>
      <path class="cls-44" d="M883.56,416.1c-8.59,1.66-72.38,13.95-87.09,60.15-14.48,45.48,26.66,98.56,59.26,123.16,65.74,49.61,171.46,39.71,227.15-24.82,41.15-47.69,56.8-127.34,31.42-151.8-18.97-18.28-44.9,9.67-118.51,6.68-59.29-2.4-69.37-21.63-112.23-13.37Z"/>
      <path class="cls-45" d="M864.2,402.49c-10.32,1.94-86.96,16.32-104.63,70.34-17.4,53.19,32.03,115.27,71.19,144.03,78.99,58.01,206,46.44,272.91-29.03,49.44-55.77,68.25-148.92,37.75-177.52-22.79-21.38-53.95,11.31-142.39,7.82-71.23-2.81-83.34-25.29-134.84-15.63Z"/>
      <path class="cls-21" d="M844.83,388.89c-12.06,2.22-101.54,18.68-122.17,80.53-20.31,60.9,37.41,131.97,83.13,164.9,92.23,66.42,240.54,53.17,318.66-33.24,57.73-63.86,79.69-170.5,44.08-203.25-26.62-24.48-62.99,12.94-166.26,8.95-83.18-3.22-97.31-28.96-157.44-17.9Z"/>
      <path class="cls-23" d="M825.46,375.29c-13.79,2.5-116.12,21.05-139.72,90.73-23.23,68.61,42.78,148.68,95.07,185.77,105.47,74.83,275.08,59.9,364.42-37.44,66.02-71.94,91.13-192.08,50.41-228.98-30.44-27.58-72.03,14.58-190.13,10.08-95.12-3.63-111.29-32.62-180.05-20.16Z"/>
      <path class="cls-42" d="M806.09,361.68c-15.52,2.78-130.7,23.41-157.26,100.92-26.15,76.31,48.15,165.38,107,206.65,118.72,83.24,309.62,66.63,410.17-41.65,74.31-80.02,102.57-213.67,56.74-254.7-34.26-30.68-81.08,16.22-214,11.21-107.06-4.03-125.26-36.29-202.66-22.43Z"/>
      <path class="cls-40" d="M786.73,348.08c-17.25,3.06-145.29,25.78-174.8,111.11-29.06,84.02,53.52,182.09,118.94,227.52,131.96,91.64,344.16,73.36,455.93-45.86,82.6-88.11,114.02-235.25,63.07-280.43-38.08-33.78-90.12,17.86-237.88,12.35-119.01-4.44-139.23-39.95-225.26-24.69Z"/>
      <path class="cls-41" d="M767.36,334.48c-18.98,3.34-159.87,28.14-192.35,121.31-31.98,91.73,58.89,198.79,130.87,248.39,145.2,100.05,378.7,80.09,501.69-50.06,90.89-96.19,125.46-256.83,69.4-306.16-41.9-36.87-99.17,19.5-261.75,13.48-130.95-4.85-153.21-43.62-247.87-26.96Z"/>
      <path class="cls-39" d="M747.99,320.87c-20.71,3.62-174.45,30.5-209.89,131.5-34.9,99.44,64.26,215.5,142.81,269.26,158.45,108.46,413.24,86.82,547.44-54.27,99.18-104.27,136.9-278.41,75.73-331.88-45.73-39.97-108.21,21.14-285.62,14.61-142.89-5.26-167.18-47.29-270.48-29.22Z"/>
      <path class="cls-43" d="M728.62,307.27c-22.44,3.9-189.03,32.87-227.43,141.7-37.81,107.15,69.63,232.2,154.75,290.14,171.69,116.87,447.78,93.55,593.2-58.48,107.47-112.35,148.34-299.99,82.06-357.61-49.55-43.07-117.26,22.78-309.49,15.74-154.84-5.66-181.15-50.95-293.08-31.49Z"/>
      <path class="cls-17" d="M709.26,293.66c-24.17,4.18-203.61,35.23-244.97,151.89-40.73,114.86,75,248.91,166.68,311.01,184.93,125.27,482.32,100.28,638.95-62.68,115.76-120.44,159.79-321.57,88.39-383.34-53.37-46.17-126.3,24.41-333.37,16.88-166.78-6.07-195.12-54.62-315.69-33.75Z"/>
      <path class="cls-36" d="M689.89,280.06c-25.9,4.46-218.19,37.6-262.52,162.08-43.65,122.56,80.37,265.61,178.62,331.88,198.18,133.68,516.86,107.01,684.71-66.89,124.05-128.52,171.23-343.16,94.72-409.06-57.19-49.27-135.35,26.05-357.24,18.01-178.72-6.48-209.1-58.28-338.3-36.02Z"/>
      <path class="cls-15" d="M670.52,266.46c-27.63,4.74-232.77,39.96-280.06,172.28-46.56,130.27,85.75,282.31,190.56,352.76,211.42,142.09,551.39,113.74,730.47-71.1,132.34-136.6,182.67-364.74,101.05-434.79-61.01-52.37-144.39,27.69-381.11,19.14-190.67-6.89-223.07-61.95-360.9-38.28Z"/>
      <path class="cls-38" d="M651.15,252.85c-29.36,5.03-247.35,42.33-297.6,182.47-49.48,137.98,91.12,299.02,202.49,373.63,224.66,150.5,585.93,120.47,776.22-75.3,140.63-144.69,194.11-386.32,107.38-460.52-64.83-55.47-153.44,29.33-404.99,20.27-202.61-7.29-237.04-65.61-383.51-40.55Z"/>
      <path class="cls-37" d="M631.79,239.25c-31.1,5.31-261.93,44.69-315.15,192.66-52.4,145.69,96.49,315.72,214.43,394.5,237.91,158.9,620.47,127.2,821.98-79.51,148.92-152.77,205.56-407.9,113.71-486.24-68.66-58.57-162.48,30.97-428.86,21.41-214.55-7.7-251.02-69.28-406.12-42.81Z"/>
      <path class="cls-27" d="M612.42,225.64c-32.83,5.59-276.51,47.06-332.69,202.86-55.31,153.4,101.86,332.43,226.37,415.37,251.15,167.31,655.01,133.93,867.73-83.72,157.21-160.85,217-429.48,120.04-511.97-72.48-61.66-171.53,32.61-452.73,22.54-226.5-8.11-264.99-72.94-428.72-45.08Z"/>
      <path class="cls-13" d="M593.05,212.04c-34.56,5.87-291.09,49.42-350.23,213.05-58.23,161.11,107.23,349.13,238.3,436.25,264.39,175.72,689.55,140.66,913.49-87.93,165.5-168.93,228.44-451.06,126.37-537.7-76.3-64.76-180.57,34.25-476.6,23.67-238.44-8.52-278.96-76.61-451.33-47.34Z"/>
      <path class="cls-19" d="M573.68,198.44c-36.29,6.15-305.67,51.79-367.77,223.24-61.15,168.81,112.6,365.84,250.24,457.12,277.63,184.13,724.09,147.39,959.25-92.13,173.79-177.02,239.88-472.65,132.7-563.42-80.12-67.86-189.61,35.88-500.48,24.8-250.38-8.92-292.93-80.28-473.94-49.61Z"/>
      <path class="cls-11" d="M554.31,184.83c-38.02,6.43-320.25,54.15-385.32,233.44-64.06,176.52,117.97,382.54,262.17,477.99,290.88,192.53,758.63,154.12,1005-96.34,182.08-185.1,251.33-494.23,139.03-589.15-83.94-70.96-198.66,37.52-524.35,25.94-262.33-9.33-306.91-83.94-496.54-51.87Z"/>
      <path class="cls-14" d="M534.95,171.23c-39.75,6.71-334.83,56.52-402.86,243.63-66.98,184.23,123.34,399.25,274.11,498.86,304.12,200.94,793.17,160.85,1050.76-100.55,190.37-193.18,262.77-515.81,145.36-614.88-87.77-74.06-207.7,39.16-548.22,27.07-274.27-9.74-320.88-87.61-519.15-54.14Z"/>
      <path class="cls-16" d="M515.58,157.63c-41.48,6.99-349.41,58.88-420.4,253.82-69.9,191.94,128.71,415.95,286.05,519.74,317.36,209.35,827.71,167.58,1096.51-104.75,198.66-201.26,274.21-537.39,151.69-640.61-91.59-77.16-216.75,40.8-572.09,28.2-286.21-10.15-334.85-91.27-541.76-56.41Z"/>
      <path class="cls-20" d="M496.21,144.02c-43.21,7.27-363.99,61.25-437.95,264.02-72.81,199.65,134.08,432.66,297.98,540.61,330.61,217.76,862.25,174.31,1142.27-108.96,206.95-209.35,285.65-558.97,158.02-666.33-95.41-80.26-225.79,42.44-595.97,29.34-298.16-10.55-348.83-94.94-564.36-58.67Z"/>
      <path class="cls-30" d="M476.84,130.42c-44.94,7.55-378.57,63.61-455.49,274.21-75.73,207.35,139.46,449.36,309.92,561.48,343.85,226.16,896.79,181.04,1188.03-113.17,215.24-217.43,297.09-580.55,164.35-692.06-99.23-83.35-234.84,44.08-619.84,30.47-310.1-10.96-362.8-98.6-586.97-60.94Z"/>
      <path class="cls-24" d="M457.48,116.81c-46.67,7.83-393.15,65.97-473.03,284.41-78.65,215.06,144.83,466.07,321.86,582.35,357.09,234.57,931.32,187.77,1233.78-117.37,223.53-225.51,308.54-602.14,170.68-717.79-103.05-86.45-243.88,45.71-643.71,31.6-322.04-11.37-376.77-102.27-609.58-63.2Z"/>
      <path class="cls-18" d="M438.11,103.21c-48.41,8.11-407.73,68.34-490.57,294.6-81.56,222.77,150.2,482.77,333.79,603.23,370.34,242.98,965.86,194.5,1279.54-121.58,231.82-233.6,319.98-623.72,177.01-743.51-106.87-89.55-252.93,47.35-667.59,32.73-333.99-11.78-390.75-105.93-632.18-65.47Z"/>
      <path class="cls-12" d="M418.74,89.61C368.6,98-3.57,160.31-89.38,394.4c-84.48,230.48,155.57,499.48,345.73,624.1,383.58,251.38,1000.4,201.23,1325.29-125.79,240.11-241.68,331.42-645.3,183.34-769.24-110.7-92.65-261.97,48.99-691.46,33.87-345.93-12.18-404.72-109.6-654.79-67.73Z"/>
      <path class="cls-29" d="M399.37,76c-51.87,8.67-436.89,73.07-525.66,314.99-87.4,238.19,160.94,516.18,357.67,644.97,396.82,259.79,1034.94,207.96,1371.05-129.99,248.4-249.76,342.86-666.88,189.67-794.97-114.52-95.75-271.02,50.63-715.33,35-357.87-12.59-418.69-113.26-677.4-70Z"/>
      <path class="cls-34" d="M380.01,62.4c-53.6,8.96-451.47,75.43-543.2,325.18C-253.51,633.47,3.11,920.46,206.41,1053.42c410.07,268.2,1069.48,214.69,1416.81-134.2,256.69-257.84,354.31-688.46,196-820.69-118.34-98.85-280.06,52.27-739.2,36.13-369.82-13-432.66-116.93-700-72.26Z"/>
      <path class="cls-26" d="M360.64,48.79c-55.33,9.24-466.05,77.8-560.75,335.37-93.23,253.6,171.68,549.59,381.54,686.72,423.31,276.61,1104.02,221.42,1462.56-138.41,264.98-265.93,365.75-710.04,202.33-846.42-122.16-101.95-289.11,53.91-763.08,37.26C701.49,109.92,636.61,2.73,360.64,48.79Z"/>
      <path class="cls-33" d="M341.27,35.19c-57.06,9.52-480.64,80.16-578.29,345.57-96.15,261.31,177.05,566.29,393.47,707.59,436.55,285.01,1138.56,228.15,1508.32-142.61,273.27-274.01,377.19-731.62,208.66-872.15-125.98-105.04-298.15,55.55-786.95,38.4-393.7-13.81-460.61-124.26-745.22-76.79Z"/>
      <path class="cls-28" d="M321.9,21.59c-58.79,9.8-495.22,82.53-595.83,355.76-99.06,269.02,182.42,583,405.41,728.46,449.8,293.42,1173.1,234.88,1554.07-146.82,281.56-282.09,388.63-753.21,214.99-897.87-129.8-108.14-307.19,57.18-810.82,39.53-405.65-14.22-474.58-127.93-767.82-79.06Z"/>
      <path class="cls-8" d="M302.54,7.98c-60.52,10.08-509.8,84.89-613.37,365.95-101.98,276.73,187.8,599.7,417.35,749.33,463.04,301.83,1207.64,241.61,1599.83-151.03,289.85-290.18,400.08-774.79,221.32-923.6-133.63-111.24-316.24,58.82-834.69,40.66C675.38,74.68,604.41-42.29,302.54,7.98Z"/>
      <path class="cls-32" d="M283.17-5.62C220.91,4.74-241.21,81.64-347.75,370.53c-104.9,284.44,193.17,616.41,429.28,770.21,476.28,310.24,1242.18,248.34,1645.59-155.24,298.14-298.26,411.52-796.37,227.65-949.33-137.45-114.34-325.28,60.46-858.57,41.79C666.67,62.93,593.67-57.29,283.17-5.62Z"/>
      <path class="cls-35" d="M263.8-19.22c-63.98,10.64-538.96,89.62-648.46,386.34-107.81,292.15,198.54,633.11,441.22,791.08,489.53,318.64,1276.72,255.07,1691.34-159.44,306.42-306.34,422.96-817.95,233.98-975.05-141.27-117.44-334.33,62.1-882.44,42.93C657.97,51.19,582.94-72.29,263.8-19.22Z"/>
      <path class="cls-25" d="M244.43-32.83C178.72-21.91-309.1,59.16-421.57,363.71c-110.73,299.85,203.91,649.82,453.16,811.95,502.77,327.05,1311.25,261.8,1737.1-163.65,314.71-314.42,434.4-839.53,240.31-1000.78-145.09-120.54-343.37,63.74-906.31,44.06C649.26,39.44,572.21-87.3,244.43-32.83Z"/>
      <path class="cls-31" d="M225.06-46.43c-67.45,11.2-568.12,94.35-683.54,406.73-113.65,307.56,209.28,666.52,465.09,832.83,516.01,335.46,1345.79,268.53,1782.85-167.86C2112.47,702.76,2235.31,164.15,2036.11-1.24c-148.91-123.64-352.42,65.38-930.18,45.19C640.56,27.69,561.47-102.3,225.06-46.43Z"/>
      <path class="cls-4" d="M205.7-60.04c-69.18,11.48-582.7,96.72-701.09,416.92-116.56,315.27,214.65,683.23,477.03,853.7,529.26,343.87,1380.33,275.26,1828.61-172.06,331.29-330.59,457.29-882.7,252.97-1052.23-152.74-126.73-361.46,67.01-954.06,46.32C631.86,15.95,550.74-117.31,205.7-60.04Z"/>
      <path class="cls-5" d="M186.33-73.64C115.42-61.88-410.95,25.44-532.3,353.48c-119.48,322.98,220.02,699.93,488.97,874.57,542.5,352.27,1414.87,281.99,1874.37-176.27,339.58-338.67,468.73-904.28,259.3-1077.96-156.56-129.83-370.51,68.65-977.93,47.46C623.15,4.2,540.01-132.31,186.33-73.64Z"/>
      <path class="cls-7" d="M166.96-87.24C94.32-75.2-444.9,14.2-569.21,350.07c-122.4,330.69,225.39,716.64,500.9,895.44,555.74,360.68,1449.41,288.72,1920.12-180.48,347.87-346.76,480.17-925.86,265.63-1103.69-160.38-132.93-379.55,70.29-1001.8,48.59C614.45-7.54,529.27-147.31,166.96-87.24Z"/>
      <path class="cls-6" d="M147.59-100.85C73.22-88.52-478.85,2.96-606.12,346.66c-125.31,338.39,230.76,733.34,512.84,916.32,568.98,369.09,1483.95,295.45,1965.88-184.68,356.16-354.84,491.62-947.44,271.96-1129.41C1980.35-187.16,1755.96,20.81,1118.88-1.4,605.74-19.29,518.54-162.32,147.59-100.85Z"/>
      <path class="cls-9" d="M128.23-114.45C52.13-101.85-512.79-8.28-643.03,343.25c-128.23,346.1,236.13,750.04,524.77,937.19,582.23,377.5,1518.49,302.18,2011.63-188.89,364.45-362.92,503.06-969.02,278.29-1155.14-168.02-139.13-397.64,73.57-1049.55,50.86C597.04-31.04,507.8-177.32,128.23-114.45Z"/>
      <path class="cls-10" d="M108.86-128.06C31.03-115.17-546.74-19.52-679.94,339.84c-131.15,353.81,241.51,766.75,536.71,958.06,595.47,385.9,1553.03,308.91,2057.39-193.1,372.74-371,514.5-990.6,284.62-1180.87C2026.93-218.29,1792.09-.86,1125.36-24.08,588.34-42.78,497.07-192.33,108.86-128.06Z"/>
    </g>
  </g>
</svg>